<?xml version="1.0" encoding="UTF-8"?>
<svg id="Initials" data-name="Initials" xmlns="http://www.w3.org/2000/svg" viewBox="0 0 100 100">

  <style>
    path {
      fill: #252525;
    }
    @media (prefers-color-scheme: dark) {
      path {
        fill: #ededed;
      }
    }
  </style>

  <path
    d="M57.73,19.15c1.92,4-1.39,22.49-1.45,26.45,6.21-7.73,17.25-9.23,18.55,2.7.37,3.36-.33,14.2-1.29,17.29-.42,1.35-1.22,1.74-2.56,1.87-7.01.67-1.89-13.83-2.37-20.17-.08-1.06-.98-1.91-2.04-1.86-8.68.39-7.91,21.49-13.03,22.03-5.17.55-2.82-3.53-2.91-7.12-8.8,6.3-4.42,12.58-7.77,21.61-1.97,5.3-7.93,21.38-15.27,13.2-5.66-6.31-.63-18.69,3.98-24.49,3.84-4.84,8.71-4.95,6.98-12.08-7.67,7.11-12.96.53-12.95-8.05,0-1.5,3.08-23.16,6.42-19.19,1.2,1.55-2.3,14.6-1.07,21.24.35,1.87,1.13,3.06,3.24,2.72,3.84-.78,4.57-5.31,5.75-11.86.77-4.29.4-15.12,4.85-12.67.49.27.89.94.89,1.49l-.03,26.31c9.41-10.38,5.29-25.02,7.01-37.97.13-.96.92-1.69,1.88-1.8l2.1-.24c.45-.05.9.17,1.1.57ZM30.94,91.28c2.3,1.68,4.67-5.96,5.17-7.35,1.41-3.9,2.59-8.07,2.44-12.27-6.37,4.37-10.79,11.92-7.61,19.61Z" />
</svg>